<?xml version="1.0" standalone="no"?>
<!DOCTYPE svg PUBLIC "-//W3C//DTD SVG 20010904//EN"
 "http://www.w3.org/TR/2001/REC-SVG-20010904/DTD/svg10.dtd">
<svg version="1.0" xmlns="http://www.w3.org/2000/svg"
 width="400.000000pt" height="400.000000pt" viewBox="0 0 400.000000 400.000000"
 preserveAspectRatio="xMidYMid meet">
<metadata>
Created by potrace 1.16, written by Peter Selinger 2001-2019
</metadata>
<g transform="translate(0.000000,400.000000) scale(0.100000,-0.100000)"
fill="#000000" stroke="none">
<path d="M0 2000 l0 -2000 2000 0 2000 0 0 2000 0 2000 -2000 0 -2000 0 0
-2000z m3199 489 c-6 -12 -7 -19 -1 -15 5 3 12 -15 16 -43 5 -39 14 -57 43
-85 43 -41 58 -44 74 -15 8 16 8 28 0 48 l-11 26 21 -25 c12 -14 26 -24 30
-22 14 4 10 -46 -6 -77 -17 -33 -65 -54 -104 -44 -58 14 -122 104 -116 163 1
14 3 32 4 41 1 20 39 69 52 69 6 0 5 -9 -2 -21z m-2066 -16 c-10 -17 -11 -23
-3 -15 21 19 40 14 40 -10 0 -12 12 -36 28 -53 15 -17 10 -14 -11 7 l-38 38 2
-157 c0 -87 4 -176 9 -199 6 -38 5 -41 -14 -40 -12 1 -20 8 -18 15 1 7 -2 10
-8 6 -8 -5 -8 -11 -1 -19 6 -7 8 -15 5 -19 -3 -3 3 -3 15 0 19 5 20 2 13 -43
-4 -27 -7 -98 -7 -159 0 -127 17 -176 73 -209 47 -26 52 -15 52 127 0 103 3
127 26 185 45 118 40 111 70 106 39 -7 44 -11 67 -63 16 -37 20 -64 18 -142
-1 -67 3 -110 14 -145 16 -46 59 -104 77 -104 17 0 48 88 54 156 5 59 -4 173
-22 274 -3 19 0 17 13 -10 14 -28 17 -65 18 -196 0 -129 2 -158 12 -145 11 13
12 10 7 -19 -11 -64 -24 -97 -52 -122 -41 -39 -67 -43 -108 -17 -58 35 -76 90
-82 240 -2 70 -8 132 -12 138 -7 13 -40 4 -40 -11 0 -5 -6 -16 -14 -24 -13
-12 -15 -11 -19 8 -2 13 -4 -35 -5 -107 0 -74 3 -119 8 -105 6 21 8 22 15 8 3
-9 4 -34 2 -55 -11 -81 -112 -123 -170 -69 -48 44 -64 97 -82 266 -6 53 -7 56
-33 55 -21 0 -28 5 -30 23 -4 27 18 38 47 22 l21 -11 -2 258 c-3 230 -1 262
15 298 17 38 41 65 59 65 5 0 1 -12 -9 -27z m1777 -20 c0 -63 67 -151 104
-137 22 8 29 40 16 65 -9 16 -9 20 0 14 6 -4 16 -19 21 -33 8 -21 12 -23 19
-12 7 11 10 6 10 -18 0 -45 -25 -80 -67 -91 -59 -16 -109 12 -145 83 -17 34
-18 44 -7 90 16 70 28 93 40 75 5 -8 9 -24 9 -36z m-2150 7 c63 -17 114 -45
160 -87 62 -55 52 -73 -41 -73 -47 0 -49 -1 -49 -28 0 -33 -16 -53 -37 -45
-20 8 -60 -33 -67 -70 -5 -23 -9 -28 -15 -18 -7 11 -10 11 -17 0 -4 -7 -3 -14
4 -17 7 -2 12 -10 12 -18 0 -8 -6 -11 -15 -8 -11 5 -15 -1 -15 -21 0 -30 28
-70 49 -70 8 0 16 -6 19 -14 3 -10 0 -12 -12 -8 -9 4 -16 2 -16 -3 0 -6 12
-10 26 -10 20 0 25 -4 22 -22 -2 -13 -9 -29 -15 -36 -24 -25 -13 -82 15 -76
10 3 34 -11 56 -30 30 -27 36 -38 28 -48 -8 -11 2 -19 49 -37 55 -21 59 -24
53 -49 -13 -56 -69 -77 -126 -48 -26 14 -26 14 -21 -19 3 -20 1 -35 -7 -40 -7
-5 -79 -8 -159 -8 -178 1 -221 12 -233 61 -8 28 -11 32 -23 22 -12 -10 -18
-10 -31 0 -33 28 -34 46 -9 96 14 27 25 50 25 51 0 1 -12 -9 -26 -22 -31 -29
-72 -39 -106 -26 -20 7 -24 15 -21 34 4 19 0 26 -17 30 -23 6 -23 13 -4 74 4
12 1 11 -8 -4 l-14 -23 -17 30 c-22 37 -15 63 21 79 24 11 28 10 41 -8 18 -27
42 -27 69 2 21 23 22 24 4 40 -24 22 -88 28 -84 8 2 -8 -3 -18 -10 -22 -46
-30 -96 15 -82 73 4 18 8 35 9 38 1 13 31 45 43 46 6 1 22 2 34 3 17 1 19 4
10 13 -18 18 -14 60 12 134 14 37 23 72 20 76 -3 5 -2 7 3 6 4 -2 9 0 11 5 8
25 74 73 123 88 83 27 283 26 379 -1z m1528 -170 c-14 -219 -4 -480 21 -535 5
-11 15 -36 22 -55 18 -47 65 -92 92 -88 18 3 23 15 36 87 9 47 21 86 26 88 6
2 19 -12 29 -31 10 -19 25 -37 32 -40 8 -3 14 -11 14 -17 0 -19 76 -88 114
-104 40 -17 63 -12 71 16 7 22 -3 79 -13 79 -4 0 -18 10 -32 21 l-25 20 32
-16 c38 -18 53 -42 54 -87 l1 -33 13 30 13 30 6 -25 c15 -57 -17 -109 -81
-137 -61 -25 -87 -18 -151 42 l-60 55 -16 -25 c-9 -14 -35 -34 -57 -45 -45
-23 -80 -21 -114 8 -21 18 -59 72 -51 72 3 0 -2 16 -10 36 -8 20 -19 97 -25
177 -27 381 -27 368 -7 424 10 29 18 58 18 65 0 7 6 25 14 40 8 14 19 43 26
63 7 20 13 35 15 33 1 -2 -2 -68 -7 -148z m628 -129 c-15 -27 -14 -29 4 -24
15 4 20 0 20 -14 0 -10 3 -23 8 -29 4 -5 0 -2 -9 8 -16 17 -17 16 -22 -15 -3
-17 -4 -122 -2 -232 2 -211 8 -241 50 -269 21 -14 25 -13 41 6 16 17 20 42 24
182 5 174 -3 219 -53 276 l-22 25 22 -19 c13 -10 34 -39 49 -63 25 -44 26 -47
22 -213 -2 -128 0 -166 9 -159 8 8 10 2 6 -23 -10 -68 -81 -105 -140 -74 -71
36 -88 110 -81 363 5 193 15 240 55 285 25 28 35 21 19 -11z m300 4 c-21 -31
-20 -34 4 -28 15 4 20 0 20 -14 0 -10 3 -23 8 -29 4 -5 0 -2 -9 8 -16 17 -17
16 -22 -15 -3 -17 -4 -125 -3 -238 2 -217 5 -230 54 -265 17 -12 22 -11 38 7
17 18 20 43 24 187 5 166 5 166 -23 221 -19 40 -21 49 -7 31 48 -61 52 -82 48
-255 -1 -90 0 -158 4 -152 4 7 8 -4 8 -24 0 -44 -28 -76 -74 -84 -50 -10 -93
17 -119 73 -19 41 -22 68 -25 222 -4 191 7 291 40 346 11 19 27 34 35 34 13 0
13 -3 -1 -25z m-495 -27 c12 -22 12 -22 -14 -5 -67 44 -81 4 -22 -63 39 -44
45 -48 54 -32 19 32 12 -10 -9 -56 -24 -52 -69 -102 -92 -102 -32 0 -28 -18
12 -65 58 -67 52 -71 -22 -11 -45 35 -60 27 -35 -17 l18 -32 -22 22 c-24 24
-29 71 -7 87 27 21 118 147 118 165 0 9 -16 32 -35 51 -21 20 -35 44 -35 58 0
13 4 21 9 18 5 -3 14 1 21 9 15 18 44 5 61 -27z m812 10 c2 -7 -2 -26 -10 -42
-14 -27 -14 -46 1 -112 16 -76 73 -136 141 -149 88 -18 106 -44 60 -90 -19
-18 -36 -25 -63 -24 l-37 1 38 8 c21 4 46 15 55 24 14 14 14 17 2 14 -8 -1
-42 5 -75 14 -33 10 -77 20 -97 23 -33 5 -40 12 -62 58 -47 97 -44 209 7 265
23 25 33 28 40 10z m-1723 -35 c-89 -113 -70 -312 42 -439 52 -59 110 -76 189
-54 29 8 38 17 48 48 15 46 27 262 15 271 -5 3 -18 17 -29 30 l-20 24 26 -17
c43 -27 53 -65 46 -169 -4 -51 -9 -103 -12 -117 -5 -24 -5 -24 4 -2 14 31 18
28 19 -15 1 -21 -9 -60 -22 -88 -26 -58 -69 -85 -146 -93 -151 -14 -259 109
-277 316 -7 85 13 187 44 220 13 15 37 46 54 70 16 23 32 42 35 42 3 0 -4 -12
-16 -27z m2067 -114 c15 -5 -13 -75 -33 -83 -8 -3 -26 -1 -40 4 -14 6 -37 10
-52 10 -37 0 -102 24 -113 41 -7 11 -9 11 -9 -2 0 -17 25 -43 50 -52 12 -4 12
-6 -1 -6 -9 -1 -27 7 -39 17 -30 25 -29 68 3 97 l25 24 62 -30 c95 -45 139
-37 99 17 -19 27 -19 27 8 -2 15 -17 33 -33 40 -35z m-1847 -14 c20 -24 6
-147 -24 -209 -13 -28 -27 -61 -31 -74 -10 -33 -49 -49 -80 -32 -41 22 -60 75
-60 166 0 71 3 85 27 121 22 34 34 42 75 50 50 10 71 5 93 -22z m1840 -185
c11 -11 20 -30 20 -42 1 -13 2 -44 4 -70 7 -94 -56 -150 -202 -178 -116 -23
-182 2 -222 85 -21 43 -23 80 -9 162 3 16 27 25 35 12 3 -6 12 -3 20 8 10 14
10 8 -2 -21 -19 -49 -12 -95 20 -125 20 -19 41 -24 121 -31 53 -5 99 -11 102
-14 9 -9 76 33 96 60 10 13 21 46 24 73 5 44 3 52 -20 75 -14 14 -22 26 -17
26 6 0 19 -9 30 -20z"/>
<path d="M1873 1925 c-17 -33 -24 -75 -13 -75 5 0 10 -11 10 -24 0 -32 41 -90
67 -94 23 -3 73 49 73 76 0 14 -2 15 -10 2 -10 -16 -8 -20 -32 60 -12 40 -16
45 -43 45 -17 0 -33 6 -36 15 -5 12 -8 11 -16 -5z"/>
</g>
</svg>
